<svg width="463" height="639" viewBox="0 0 463 639" fill="none" xmlns="http://www.w3.org/2000/svg">
<path d="M11.4717 162.365C6.28228 159.259 6.28226 151.741 11.4717 148.635L234.642 15.0881C239.974 11.8972 246.75 15.7387 246.75 21.9529L246.75 289.047C246.75 295.261 239.974 299.103 234.642 295.912L11.4717 162.365Z" fill="#176CC9"/>
<path d="M232.75 22C232.75 16.4772 237.227 12 242.75 12H452.75C458.273 12 462.75 16.4772 462.75 22V182H232.75V22Z" fill="#FF0081"/>
<path d="M232.835 181.49H462.742V629C462.742 634.523 458.265 639 452.742 639H232.835V181.49Z" fill="#F5D547"/>
<circle cx="347.75" cy="522" r="100" fill="#2D2C4E"/>
<path d="M33.75 441C33.75 435.477 38.2272 431 43.75 431H232.75V639H43.75C38.2272 639 33.75 634.523 33.75 629V441Z" fill="#FF0081"/>
<rect width="31" height="12" transform="matrix(-1 0 0 1 269.75 0)" fill="#2D2C4E"/>
</svg>
